<?xml version="1.0" encoding="iso-8859-1"?>
<!-- Generator: Adobe Illustrator 19.0.0, SVG Export Plug-In . SVG Version: 6.00 Build 0)  -->
<svg version="1.1" id="Layer_1" xmlns="http://www.w3.org/2000/svg" xmlns:xlink="http://www.w3.org/1999/xlink" x="0px" y="0px"
	 viewBox="0 0 512 512" style="enable-background:new 0 0 512 512;" xml:space="preserve">
<polygon style="fill:#FFCE54;" points="454,138.668 421,93.004 394,128.004 405.344,172.004 458,193.004 495,164.004 "/>
<path d="M394.688,224.004c-3.469,0-6.531,1.648-8.469,4.195l-87.531,97.195l-88.094-97.859v0.008
	c-1.938-2.172-4.781-3.539-7.906-3.539c-5.906,0-10.688,4.773-10.688,10.664v0.008V426.66c0,0.016,0,0.016,0,0.016
	c0,5.875,4.781,10.656,10.688,10.656c5.875,0,10.656-4.781,10.656-10.656l0,0V262.457l77.406,86.016v-0.016
	c1.969,2.172,4.781,3.547,7.938,3.547c3.125,0,5.969-1.359,7.906-3.547v0.016L384,262.52v164.156
	c0,5.875,4.781,10.656,10.688,10.656c5.875,0,10.656-4.781,10.656-10.656V234.668C405.344,228.777,400.562,224.004,394.688,224.004z
	"/>
<path d="M96,224.004H10.688C4.781,224.004,0,228.777,0,234.668v138.664l0,0v53.328c0,0.016,0,0.016,0,0.016
	c0,5.875,4.781,10.656,10.688,10.656c5.875,0,10.656-4.781,10.656-10.656l0,0v-53.344H96c41.25,0,74.688-33.422,74.688-74.656
	C170.688,257.434,137.25,224.004,96,224.004z M96,352.004H21.344V245.34H96c29.406,0,53.344,23.93,53.344,53.336
	S125.406,352.004,96,352.004z"/>
<path d="M503.406,147.566c-35.5,0-64.281-28.781-64.281-64.289c0-2.914,0.188-5.789,0.562-8.609
	C408.25,78.879,384,105.801,384,138.387c0,35.5,28.781,64.281,64.312,64.281c32.562,0,59.5-24.242,63.688-55.672
	C509.188,147.371,506.312,147.566,503.406,147.566z M448.312,181.34c-23.688,0-42.969-19.273-42.969-42.953
	c0-13.047,5.938-24.93,15.344-32.875c3.812,14.359,11.375,27.523,22.188,38.312c10.781,10.789,23.938,18.344,38.312,22.18
	C473.219,175.418,461.344,181.34,448.312,181.34z"/>
<g>
</g>
<g>
</g>
<g>
</g>
<g>
</g>
<g>
</g>
<g>
</g>
<g>
</g>
<g>
</g>
<g>
</g>
<g>
</g>
<g>
</g>
<g>
</g>
<g>
</g>
<g>
</g>
<g>
</g>
</svg>
